<svg xmlns="http://www.w3.org/2000/svg" viewBox="0 0 165.23 111.88"><defs><style>.cls-1,.cls-2{fill:#ff6b00;}.cls-2{fill-rule:evenodd;}.cls-3{fill:#fbe849;}.cls-4{fill:#a34c22;}.cls-5{fill:#f8b911;}.cls-6{fill:#5f4023;}.cls-7{fill:#40281c;}.cls-8{fill:#944620;}.cls-9{fill:#dd7e3f;}.cls-10{fill:#fff;}.cls-11{fill:#160b07;}</style></defs><g id="Layer_2" data-name="Layer 2"><g id="Layer_2-2" data-name="Layer 2"><path class="cls-1" d="M11.55,86c-.25.31-.41.2-.57.07l-.7-.56c-.17-.14-.31-.27-.07-.58l4.56-5.66c.13-.16.26-.31.57-.06l.8.64a.45.45,0,0,1,.14.48l-.59,2.73c0,.07-.06.19,0,.23s.16,0,.22-.06l2.51-1.14a.47.47,0,0,1,.54,0l.75.6c.31.25.2.41.07.57L15.22,89c-.25.31-.41.19-.57.06l-.7-.56c-.31-.24-.19-.4-.07-.56l2.58-3.2s0-.06,0-.09,0,0,0,0l-2.07,1.13c-.1,0-.29.15-.43,0l-.31-.26c-.1-.09-.11-.23,0-.42l.7-2.34s0-.07-.07,0Z"/><path class="cls-1" d="M16.85,90.64c-.16-.11-.32-.24-.1-.56l4.16-6c.12-.16.24-.32.56-.1l.74.52c.32.22.22.39.1.56l-2.16,3.1,0,0L23.58,86a.49.49,0,0,1,.6-.07l.76.53c.33.23.23.4.1.56l-4.16,6c-.11.18-.23.33-.55.11l-.74-.52c-.32-.22-.22-.39-.1-.56l2.26-3.25,0,0-3.48,2.39a.49.49,0,0,1-.67,0Z"/><path class="cls-1" d="M28.63,88.76c2.24,1.35,1.63,2.89,1.19,3.62-1.22,2-3.31.74-3.6.56l-.62-.38a.19.19,0,0,0-.25.06L24,94.91c-.2.32-.37.24-.55.13l-.77-.47c-.18-.11-.34-.21-.13-.55l3.77-6.22c.1-.18.21-.34.55-.14ZM26.9,91.6a1,1,0,0,0,1.38-.26c.24-.38.26-.91-.43-1.33l-.54-.32a.15.15,0,0,0-.21,0l-.82,1.36a.11.11,0,0,0,0,.16Z"/><path class="cls-1" d="M41.6,95.45c.36.16.29.36.21.54l-2.48,5.48c-.06.13-.06.14.06.21l.24.09c.18.08.36.18.2.54l-.9,2c-.16.35-.35.29-.53.2l-.77-.35c-.36-.15-.29-.34-.21-.53l.38-.83a.17.17,0,0,0-.1-.24l-2.55-1.15a.19.19,0,0,0-.28.11l-.35.79c-.17.36-.35.29-.54.2l-.77-.34c-.36-.16-.29-.35-.2-.53l.89-2c.17-.36.35-.3.54-.2l.09,0c.26.12.63-.46.8-.69A24.23,24.23,0,0,0,37.57,95l.41-.82c.15-.3.31-.22.5-.14Zm-1.86,1a.12.12,0,0,0-.07-.18L39.15,96a.13.13,0,0,0-.2.06l-.34.64a21.3,21.3,0,0,1-2.21,3.45s0,.06,0,.08a.18.18,0,0,0,.12.14l1.08.49c.16.07.19,0,.21-.09Z"/><path class="cls-1" d="M43.57,96.71c.07-.19.15-.37.52-.24l3.54,1.33c.37.14.31.33.23.53l-.28.77c-.1.24-.34.16-.44.13L45,98.41a.18.18,0,0,0-.26.1l-.42,1.13c0,.1-.08.2,0,.25l1.71.63a.23.23,0,0,1,.17.31l-.36,1c0,.06-.09.21-.31.13l-1.71-.64c-.16-.06-.18,0-.21.12L43,103c0,.07,0,.13.07.18l2.43.91c.27.1.23.26.19.38l-.28.75c-.08.2-.16.38-.52.24L41.24,104c-.19-.07-.37-.15-.23-.51Z"/><path class="cls-1" d="M51.86,99.19c2.52.77,2.3,2.41,2,3.22-.69,2.24-3,1.53-3.35,1.43l-.71-.22a.17.17,0,0,0-.21.11l-.78,2.57c-.11.37-.31.33-.51.26l-.86-.26c-.2-.06-.38-.13-.27-.51l2.13-7c.06-.19.14-.38.51-.26Zm-1,3.18a1,1,0,0,0,1.28-.58c.13-.44,0-1-.75-1.19l-.6-.19a.14.14,0,0,0-.19.11L50.16,102a.13.13,0,0,0,.09.14Z"/><path class="cls-1" d="M55.75,100.76c0-.22.1-.39.49-.3l3.67.88c.39.09.35.28.31.48l-.2.8a.31.31,0,0,1-.41.19l-2.26-.55a.17.17,0,0,0-.24.13l-.29,1.18c0,.09,0,.2.08.24l1.77.41a.25.25,0,0,1,.21.28l-.24,1a.21.21,0,0,1-.28.17l-1.79-.44c-.16,0-.17.08-.19.16L56,107c0,.08,0,.14.09.17l2.52.6c.28.07.27.23.24.36l-.19.78c0,.2-.11.4-.49.3l-3.82-.91c-.2,0-.39-.11-.3-.49Z"/><path class="cls-1" d="M61.77,102.07c0-.13.06-.31.4-.25l2.19.38c1.85.33,2.37,1.4,2.19,2.46a1.65,1.65,0,0,1-1.36,1.41v.05a2,2,0,0,1,1,2.25c-.21,1.19-1.06,2.17-3,1.83l-2.44-.43c-.24,0-.31-.21-.27-.44Zm3,2.51c.06-.35-.07-.8-.94-.94l-.36-.07c-.13,0-.22,0-.23.11L63,104.93c0,.07.07.15.19.17l.37.07c.76.13,1.12-.18,1.19-.59M63,108.65c.85.14,1.3-.24,1.38-.77s-.16-1.06-1-1.22l-.49-.08c-.18,0-.21.09-.21.16l-.29,1.65c0,.11,0,.15.12.17Z"/><path class="cls-1" d="M73.49,103.42c.39,0,.38.25.36.46l-.78,7.22c0,.39-.24.38-.45.36l-.89-.1c-.39,0-.38-.24-.36-.44l.31-2.85c0-.08,0-.14-.11-.15l-.22,0a.31.31,0,0,0-.26.14l-1.69,2.83c-.07.12-.15.23-.46.2l-1.2-.14a.26.26,0,0,1-.19-.43l1.81-2.94a.29.29,0,0,0,.08-.17c0-.13-.21-.17-.42-.37a2.17,2.17,0,0,1-.68-1.87c.11-1,.91-2.18,3-2ZM72,105a.18.18,0,0,0-.18-.21l-.5-.06c-.82-.09-1.11.36-1.15.77s.33.92,1,1l.51,0c.18,0,.19-.08.21-.2Z"/><path class="cls-1" d="M76.63,103.64c.39,0,.4.21.39.41l-.1,2.23s0,.22.17.23l1.25,0c.08,0,.18,0,.19-.23l.1-2.21c0-.2,0-.39.42-.38l.9,0c.39,0,.4.22.38.43L80,111.46c0,.21,0,.41-.42.39l-.9,0c-.39,0-.39-.22-.39-.42l.14-3a.16.16,0,0,0-.17-.2l-1.26,0a.16.16,0,0,0-.18.16l-.14,3c0,.39-.21.39-.42.38l-.89,0c-.21,0-.41,0-.39-.42l.32-7.27c0-.2,0-.4.42-.38Z"/><path class="cls-1" d="M83.13,103.79c.39,0,.4.19.41.41l0,2.22s0,.22.18.21l1.26,0c.08,0,.18,0,.18-.24l0-2.2c0-.21,0-.41.4-.42h.9c.39,0,.4.19.41.4l.13,7.27c0,.2,0,.39-.4.4l-.9,0c-.4,0-.41-.19-.41-.4l0-3c0-.13-.07-.19-.19-.19l-1.26,0a.18.18,0,0,0-.17.18l0,3c0,.39-.18.41-.39.41h-.9c-.21,0-.4,0-.41-.39l-.13-7.27c0-.2,0-.4.39-.4Z"/><path class="cls-1" d="M88.31,104.1c0-.2,0-.4.36-.44l.9-.08c.39,0,.42.16.43.37l.22,2.33c0,.07,0,.14.15.12l.85-.07a2.46,2.46,0,0,1,2.92,2.43c.21,2.22-1.51,2.65-2.59,2.75l-2.14.2c-.39,0-.42-.17-.44-.37Zm5.82-.53c0-.21,0-.4.37-.44l.89-.08c.21,0,.4,0,.44.37l.67,7.23c0,.4-.16.43-.37.44l-.9.08c-.21,0-.41,0-.44-.36Zm-3.58,6.28a.17.17,0,0,0,.16.15l.75-.07a1,1,0,0,0,.82-1.15,1,1,0,0,0-1.15-.93l-.6.05c-.15,0-.15.11-.15.18Z"/><path class="cls-1" d="M98.63,102.55a.43.43,0,0,1,.45.21l.78,1.2c0,.05,0,.11.11.1s0-.06.06-.1l.45-1.53a.36.36,0,0,1,.31-.24L102,102c.23,0,.33.1.27.33l-1,3.41a.34.34,0,0,0,.08.25l2.34,3.53c.13.19.11.37-.12.4l-1.16.2c-.17,0-.28,0-.47-.24l-1.24-1.75s-.06-.08-.09-.08h0s0,.08,0,.13l-.54,2c0,.12-.08.36-.37.41l-1.21.2c-.23,0-.29-.17-.24-.36l1.13-4.07a.33.33,0,0,0-.07-.36l-1.87-2.89a.22.22,0,0,1,.15-.36Z"/><path class="cls-1" d="M112.75,107.75c-.19,0-.39.1-.5-.27l-2.09-7c-.06-.2-.1-.39.27-.5l.86-.26c.38-.11.45.07.51.27l1.08,3.62,0,0,.35-4c0-.19,0-.43.32-.52l.9-.27c.37-.11.44.07.5.27l2.09,7c.06.2.1.39-.27.51l-.86.25c-.37.12-.45-.06-.5-.27l-1.15-3.78h0L114,107a.51.51,0,0,1-.39.54Z"/><path class="cls-1" d="M120.21,96.75c.25-.09.41,0,.45.07l.35,1a.27.27,0,0,1-.15.36l-2.29.83c-.1,0-.13.09-.09.19l2.06,5.61c.15.4,0,.45-.15.51l-1,.37c-.15,0-.32,0-.43-.23l-2.53-6.92a.35.35,0,0,1,.23-.45Z"/><path class="cls-1" d="M123.88,95.23c2.42-1.06,3.31.33,3.64,1.1.94,2.16-1.3,3.13-1.6,3.27l-.69.29a.17.17,0,0,0-.08.23l1.07,2.45c.15.36,0,.45-.21.53l-.83.36c-.19.09-.37.15-.53-.21l-2.9-6.66c-.09-.19-.15-.37.21-.53Zm1.32,3a1,1,0,0,0,.6-1.27.9.9,0,0,0-1.34-.42l-.58.25a.15.15,0,0,0-.08.2l.64,1.45a.1.1,0,0,0,.15,0Z"/><path class="cls-1" d="M128.67,93a.34.34,0,0,1,.43.07l2.2,2.11c.23.24.3.31.34.29s0-.42-.08-.65l-.5-2.78a.34.34,0,0,1,.19-.37l1.1-.56c.26-.14.3.09.32.17L133.6,97c.34,2-.19,2.73-1.34,3.31-.43.23-.94.53-1.12.17l-.46-.9c-.09-.17.06-.27.14-.31.64-.34.43-.13.77-.31a.65.65,0,0,0,.34-.83,1.12,1.12,0,0,0-.19-.29L127.47,94a.21.21,0,0,1,0-.36Z"/><path class="cls-1" d="M133.59,91c-.11-.18-.21-.36.13-.56l.76-.47c.34-.21.45,0,.56.13l3.14,5.1a.17.17,0,0,0,.24.06l1-.62a.16.16,0,0,0,.06-.25l-3.15-5.1c-.1-.18-.2-.35.14-.56l.77-.47c.33-.21.44,0,.55.13L141,93.45a.18.18,0,0,0,.24.06l1-.63a.16.16,0,0,0,.07-.25l-3.14-5.1c-.11-.17-.21-.35.12-.56l.77-.47c.34-.2.45,0,.55.12l3.82,6.2c.21.34.05.45-.13.57L138,97.27c-.18.1-.35.2-.55-.14Z"/><path class="cls-1" d="M141.63,85.85c-.11-.16-.22-.34.1-.56l3.06-2.22c.31-.23.44-.08.56.09l.48.67c.16.21,0,.37-.12.43l-1.88,1.36c-.07,0-.16.13-.06.26l.71,1c.05.07.12.17.22.1l1.48-1.08a.24.24,0,0,1,.34,0l.62.85a.21.21,0,0,1,0,.33l-1.49,1.07c-.13.09-.06.18,0,.24l1,1.34c0,.07.1.1.19,0l2.11-1.53c.23-.17.34,0,.41,0l.48.66c.12.16.22.33-.09.56l-3.19,2.31c-.17.13-.33.22-.57-.09Z"/><path class="cls-1" d="M146.63,82.18c-.13-.16-.25-.31.06-.56l.69-.57c.3-.25.43-.11.57,0L149.53,83a.14.14,0,0,0,.23,0l.42-.36c.23-.17.38-.51-.05-1l-.55-.66a1.2,1.2,0,0,1,.08-1.83l.6-.49a.33.33,0,0,1,.49,0l.46.56a.26.26,0,0,1,0,.39l-.17.14c-.18.15,0,.37.08.49l.59.73c.51.62.1.92.16,1.11,0,0,0,0,0,.05.27.15.87-.47,1.69.53l1.56,1.9c.13.16.25.31-.06.56l-.69.58c-.3.24-.44.1-.57-.06l-1.21-1.47c-.68-.83-1.21-.48-1.43-.3l-.43.35a.18.18,0,0,0,0,.23l1.81,2.21c.25.31.11.44-.05.57l-.69.57c-.17.13-.32.25-.57,0Z"/><path class="cls-2" d="M158.26,82.61l-5.83-6.28a27.78,27.78,0,0,0,5.23-15.84c0-23.79-33.58-43.08-75-43.08s-75,19.29-75,43.08A27.75,27.75,0,0,0,13,76.41L7.53,83.18c-6.65-8.41-9.3-17-6.3-27.46,8.56-22.93,41.77-40,81.45-40s73,17.16,81.49,40.15c2.62,10.11.31,18.67-5.91,26.78"/><path class="cls-3" d="M27.79,52.37c-1,0-1.42.11-2-1-.22-.45-.56-.82-.84-.77L22.87,51a9.55,9.55,0,0,1,1.83,3.45c1.67-1.08,3.09-2.1,3.09-2.1"/><path class="cls-4" d="M25.05,50.41c.38,0,.74.44,1,.88.43.9.76.89,1.54.88h.24a.2.2,0,0,1,.19.14.19.19,0,0,1-.07.22s-1.45,1-3.11,2.11a.2.2,0,0,1-.3-.14,9.41,9.41,0,0,0-1.78-3.36.19.19,0,0,1,0-.19.18.18,0,0,1,.15-.13l2.12-.4Zm2.12,2.16c-.61,0-1.06-.17-1.52-1.1-.23-.47-.52-.71-.62-.66l-1.8.34a9.75,9.75,0,0,1,1.61,3C25.79,53.52,26.65,52.93,27.17,52.57Z"/><path class="cls-5" d="M25.63,52.78c-1,0-1.42.1-2-1S21.91,50,22.54,54.87c1.67-1.06,3.09-2.09,3.09-2.09"/><path class="cls-4" d="M22.89,50.81c.38,0,.74.44,1,.89.44.89.76.87,1.55.88h.23a.2.2,0,0,1,.19.14.19.19,0,0,1-.07.22S24.3,54,22.64,55a.18.18,0,0,1-.19,0,.21.21,0,0,1-.11-.16c-.33-2.55-.2-3.87.41-4.06ZM25,53c-.61,0-1.06-.18-1.51-1.1-.24-.49-.54-.69-.64-.67s-.54.2-.17,3.32C23.65,53.92,24.5,53.34,25,53Z"/><path class="cls-3" d="M25.73,69.74l-2.05-2C22.6,66.63,21.62,64.59,21,61c-1.34-7.63,2.83-8,4.65-8.26l1.57,1.56a39.63,39.63,0,0,0-.94,4.8c.11,1,0,1.33.77,1.12l.09-4.38c-.21-2.28-.16-3.3,1.72-3.66,0,0,8.23-1.25,11.28-1.67s3.51-1.23,4.06-2.65c0,0,.71-2.8,1.25-5.75a2.45,2.45,0,0,0-.12-1.6.37.37,0,0,0-.39-.25s-.81-.86-1.07-1.11c-.47-.48-.87-.74-.87-1.45,0-2,5.74-3.53,13.16-3.61s9.83,3.18,9.63,5.83-1.24,9-1.65,11.49-1.85,7.69-3,9.12L27.37,68.87a9.24,9.24,0,0,0-1.64.87M53.14,39.08c-.67,0-2.78-.06-3.25,1.67s-1.62,5.81-1.62,5.81c-.31,1.16-.45,2.58.94,2.41s3.56-.46,3.56-.46c1-.14,1.41-.93,1.38-2.56l.12-5.62c0-.87-.39-1.26-1.13-1.25m5.46-.74c-.76,0-1.43.48-1.5,1.8l-.28,6.36c0,.76.28,1.17,1,1.08l1.37-.1a1.35,1.35,0,0,0,1.26-1,30.05,30.05,0,0,0,2.07-7.25c.13-.7-.66-1.06-1.65-1Z"/><path class="cls-4" d="M56.37,33.9c4.86,0,7.21,1.42,8.34,2.62A4.51,4.51,0,0,1,66,39.94c-.14,1.83-.71,5.81-1.65,11.51-.38,2.33-1.85,7.72-3,9.21a.26.26,0,0,1-.11.07L27.42,69.06a8.91,8.91,0,0,0-1.58.84.21.21,0,0,1-.25,0l-2.05-2C22.29,66.6,21.37,64.3,20.79,61c-.52-2.95-.26-5.15.75-6.55a5.42,5.42,0,0,1,3.92-1.91l.15,0a.2.2,0,0,1,.17,0l1.11,1.1c.14-.9.64-1.47,1.92-1.72.09,0,8.28-1.25,11.29-1.66s3.37-1.14,3.91-2.54c0,0,.7-2.8,1.24-5.71a2.36,2.36,0,0,0-.11-1.48c-.07-.15-.17-.13-.17-.13a.22.22,0,0,1-.19-.06s-.8-.86-1.06-1.11l-.18-.18a1.78,1.78,0,0,1-.75-1.41c0-2.41,6.72-3.73,13.36-3.81ZM61,60.36c1.05-1.42,2.48-6.38,2.9-9,.94-5.69,1.51-9.66,1.65-11.48a4.14,4.14,0,0,0-1.17-3.12c-1.07-1.14-3.33-2.49-8.05-2.49h-.22c-8.12.09-13,1.8-13,3.41,0,.53.25.76.62,1.12L44,39c.22.22.82.86,1,1.06a.58.58,0,0,1,.49.36,2.76,2.76,0,0,1,.14,1.72c-.54,2.93-1.25,5.74-1.25,5.76-.58,1.48-1.08,2.39-4.23,2.81S29,52.37,28.87,52.39c-1.15.22-1.55.68-1.62,1.68l.1.1a.18.18,0,0,1,0,.18c0,.19-.09.39-.14.6s0,.56.06.88l-.08,4.41a.19.19,0,0,1-.15.18.89.89,0,0,1-.7,0c-.21-.16-.24-.45-.28-.89,0-.12,0-.24,0-.38a28.13,28.13,0,0,1,.77-4.21q0-.37,0-.69L25.57,53h-.06a5,5,0,0,0-3.65,1.76c-.95,1.3-1.17,3.41-.68,6.24.57,3.18,1.45,5.41,2.64,6.64l1.94,1.88a7.6,7.6,0,0,1,1.57-.82Zm-34.19-.29.07-3.63a15.65,15.65,0,0,0-.45,2.65c0,.14,0,.27,0,.38,0,.29,0,.56.11.6S26.69,60.1,26.85,60.07ZM61.1,38a1.89,1.89,0,0,1,1.45.5.86.86,0,0,1,.2.76,30,30,0,0,1-2.08,7.29,1.53,1.53,0,0,1-1.43,1.09l-1.37.1a1.13,1.13,0,0,1-.86-.2,1.41,1.41,0,0,1-.38-1.07l.28-6.38c.07-1.69,1.09-2,1.69-2l2.3-.09Zm-3.43,9.35h.17l1.38-.1c.44,0,.79-.17,1.09-.85a30.43,30.43,0,0,0,2-7.19.5.5,0,0,0-.1-.44,1.76,1.76,0,0,0-1.34-.35l-2.31.09h0c-.81,0-1.26.58-1.31,1.61L57,46.51a1,1,0,0,0,.25.76A.58.58,0,0,0,57.67,47.39ZM53,38.88h.15c.86,0,1.29.47,1.32,1.45L54.35,46c0,1.25-.14,2.57-1.56,2.76,0,0-2.17.3-3.55.45a1.14,1.14,0,0,1-1.08-.32c-.36-.41-.39-1.18-.09-2.34,0,0,1.17-4.09,1.63-5.8S52.21,38.88,53,38.88Zm.14.4h-.06c-.7,0-2.58,0-3,1.52-.46,1.71-1.61,5.77-1.63,5.81-.32,1.25-.17,1.76,0,2a.79.79,0,0,0,.73.19c1.38-.16,3.53-.45,3.55-.45C53.63,48.2,54,47.51,54,46l.12-5.62c0-.75-.29-1-.92-1Z"/><path class="cls-5" d="M22.55,62.57c-1.34-7.63,2.83-8,4.66-8.26,0,0,.52,5.38.63,6.35s0,1.32.77,1.12l.08-4.38c-.21-2.28-.16-3.3,1.72-3.66,0,0,8.23-1.24,11.28-1.66s3.51-1.23,4.07-2.66c0,0,.7-2.79,1.25-5.74s-2.45-2.44-2.46-4.42,5.74-3.53,13.16-3.6,9.83,3.18,9.64,5.82S66.1,50.54,65.69,53s-1.85,7.68-3,9.11L28.93,70.42c-2.13.41-5-.24-6.38-7.85M54.71,40.63c-.68,0-2.79-.06-3.26,1.66s-1.62,5.81-1.62,5.81c-.31,1.17-.44,2.58,1,2.43s3.55-.46,3.55-.46c1-.14,1.41-.93,1.39-2.56l.12-5.62c0-.88-.39-1.26-1.13-1.26m5.45-.74c-.76,0-1.43.48-1.5,1.81l-.27,6.36c0,.76.27,1.17,1,1.07L60.79,49a1.34,1.34,0,0,0,1.26-1,29.84,29.84,0,0,0,2.07-7.26c.14-.7-.66-1.06-1.64-1Z"/><path class="cls-4" d="M58,35.46c4.82,0,7.17,1.41,8.29,2.61a4.48,4.48,0,0,1,1.28,3.42c-.14,1.84-.69,5.71-1.65,11.52-.38,2.32-1.84,7.71-3,9.2a.19.19,0,0,1-.11.07L29,70.62A4.06,4.06,0,0,1,25.8,70c-1.61-1.11-2.77-3.61-3.44-7.44h0c-.52-3-.27-5.16.75-6.56A5.44,5.44,0,0,1,27,54.13l.14,0a.2.2,0,0,1,.15,0,.21.21,0,0,1,.07.14c0,.05.53,5.39.64,6.35q0,.21,0,.39a1.67,1.67,0,0,0,.11.59s.07,0,.23,0l.08-4.22c-.2-2.18-.21-3.45,1.88-3.85.09,0,8.28-1.26,11.3-1.67s3.36-1.14,3.9-2.53c0,0,.7-2.79,1.24-5.71a2.16,2.16,0,0,0-1.2-2.56c-.61-.42-1.25-.85-1.25-1.82,0-2.41,6.71-3.74,13.35-3.8Zm4.64,26.45c1-1.42,2.47-6.38,2.89-9,1-5.8,1.51-9.66,1.65-11.49A4.11,4.11,0,0,0,66,38.34c-1.07-1.14-3.32-2.48-8-2.48h-.26c-8.12.07-13,1.79-13,3.4,0,.76.51,1.1,1.09,1.5a2.52,2.52,0,0,1,1.36,3C46.66,46.64,46,49.44,46,49.47c-.59,1.51-1.07,2.37-4.23,2.81-3,.41-11.2,1.65-11.28,1.66-1.68.32-1.76,1.15-1.56,3.45l-.08,4.39a.2.2,0,0,1-.14.19.87.87,0,0,1-.71,0c-.21-.15-.24-.44-.27-.88,0-.11,0-.24,0-.37-.09-.86-.51-5.16-.61-6.16a5,5,0,0,0-3.6,1.75c-.95,1.3-1.18,3.41-.68,6.25h0c.65,3.72,1.76,6.14,3.27,7.18a3.67,3.67,0,0,0,2.88.52Zm0-22.32a1.93,1.93,0,0,1,1.47.5.86.86,0,0,1,.19.76,29.86,29.86,0,0,1-2.08,7.3,1.54,1.54,0,0,1-1.43,1.09l-1.36.09a1.09,1.09,0,0,1-.87-.2,1.38,1.38,0,0,1-.38-1.07l.27-6.37c.09-1.69,1.1-2,1.7-2l2.31-.1ZM59.22,49l.18,0,1.38-.09c.43,0,.78-.17,1.09-.85a29.77,29.77,0,0,0,2.05-7.2.51.51,0,0,0-.1-.44A1.73,1.73,0,0,0,62.48,40l-2.31.09h0c-.82,0-1.26.57-1.31,1.62l-.27,6.35a1,1,0,0,0,.24.77A.55.55,0,0,0,59.22,49Zm-4.51-8.52h0c.86,0,1.3.49,1.32,1.45l-.11,5.63c0,1.25-.15,2.56-1.56,2.76,0,0-2.16.29-3.56.46a1.17,1.17,0,0,1-1.08-.34c-.36-.42-.39-1.19-.08-2.34,0,0,1.16-4.08,1.62-5.81s2.58-1.81,3.37-1.81Zm-4.13,9.91h.18c1.39-.17,3.54-.47,3.54-.47.75-.1,1.25-.54,1.22-2.36l.12-5.63c0-.74-.29-1.05-.93-1.05h-.08c-.77,0-2.58,0-3,1.52C51.19,44.07,50,48.11,50,48.16c-.33,1.24-.18,1.76,0,2A.71.71,0,0,0,50.58,50.34Z"/><path class="cls-3" d="M29.5,55.74l-.65,5.19L29.59,73l2.08-.23c.21,0,.22-.3.19-1.4l-.54-7.72,1.74-.2c.33,0,.58-.57.45-2.85-.27-2.8-.87-3-1.39-2.8s-1.11-.2-1.83-2a5.11,5.11,0,0,0-1-1.73c0,.29.18,1.66.18,1.66"/><path class="cls-4" d="M29.32,53.88a.2.2,0,0,1,.14.06,5.3,5.3,0,0,1,1,1.81c.55,1.36,1.08,2,1.59,1.84a.81.81,0,0,1,.72.08c.47.31.76,1.23.91,2.89.14,2.27-.12,2.78-.32,3a.39.39,0,0,1-.32.11l-1.53.18.53,7.53c0,1.12,0,1.54-.36,1.6l-2.09.24a.23.23,0,0,1-.15-.05.21.21,0,0,1-.07-.14l-.74-12,.65-5.2-.18-1.64a.21.21,0,0,1,.11-.2ZM31.9,58c-.63,0-1.21-.68-1.8-2.13a5.87,5.87,0,0,0-.5-1.11l.1.95v.05L29.05,61l.73,11.81,1.86-.21a6.61,6.61,0,0,0,0-1.19l-.53-7.71a.19.19,0,0,1,.17-.21L33,63.23h.06s.36-.13.21-2.65c-.17-1.85-.5-2.43-.74-2.59a.43.43,0,0,0-.39,0A.86.86,0,0,1,31.9,58Z"/><path class="cls-5" d="M39.68,58.1l0,10,4,3.22c.45.36.86.18.86-.78s-.18-7.47-.18-7.47a2.55,2.55,0,0,0-1.26-2.28c-1.1-.83-3.43-2.67-3.43-2.67"/><path class="cls-4" d="M39.68,57.54a.55.55,0,0,1,.35.12s2.32,1.83,3.42,2.66A3.1,3.1,0,0,1,44.93,63h0s.17,6.51.18,7.48c0,.73-.21,1.22-.63,1.42a1,1,0,0,1-1.14-.2l-4.05-3.22a.58.58,0,0,1-.21-.44l0-10a.58.58,0,0,1,.32-.51A.69.69,0,0,1,39.68,57.54ZM44,70.81a2.07,2.07,0,0,0,0-.29c0-1-.18-7.46-.18-7.46a2,2,0,0,0-1-1.84c-.66-.5-1.75-1.36-2.53-2l0,8.56Z"/><path class="cls-5" d="M37.84,58.59l0,1.22a9,9,0,0,1,1-.4c-.57-.48-1-.82-1-.82"/><path class="cls-4" d="M37.84,58a.56.56,0,0,1,.35.13l1,.82a.55.55,0,0,1,.19.53.54.54,0,0,1-.37.43,6.49,6.49,0,0,0-.91.38.58.58,0,0,1-.54,0,.54.54,0,0,1-.26-.46l0-1.22a.59.59,0,0,1,.31-.52A.57.57,0,0,1,37.84,58Z"/><path class="cls-3" d="M46.79,66.24c-.68,4-4.31,7.28-8.11,7.28S32.34,70.29,33,66.29,37.34,59,41.14,59s6.34,3.24,5.65,7.24"/><path class="cls-4" d="M41.16,58.81a5.78,5.78,0,0,1,4.51,2A6.68,6.68,0,0,1,47,66.28h0c-.7,4.11-4.43,7.44-8.32,7.45h0a5.77,5.77,0,0,1-4.5-2,6.66,6.66,0,0,1-1.32-5.45c.69-4.1,4.42-7.44,8.31-7.45ZM38.65,73.32h0c3.71,0,7.26-3.19,7.93-7.11h0a6.25,6.25,0,0,0-1.24-5.13,5.38,5.38,0,0,0-4.2-1.88h0c-3.7,0-7.26,3.21-7.92,7.12a6.29,6.29,0,0,0,1.23,5.13A5.37,5.37,0,0,0,38.65,73.32Zm8.14-7.08Z"/><path class="cls-5" d="M48.36,67.8c-.68,4-4.32,7.27-8.12,7.27s-6.34-3.22-5.66-7.23,4.33-7.26,8.13-7.28S49,63.79,48.36,67.8"/><path class="cls-4" d="M42.74,60.37a5.78,5.78,0,0,1,4.49,2,6.68,6.68,0,0,1,1.32,5.46h0c-.7,4.11-4.42,7.44-8.31,7.44h0a5.76,5.76,0,0,1-4.5-2,6.62,6.62,0,0,1-1.33-5.45c.7-4.09,4.43-7.43,8.32-7.44ZM40.22,74.88h0c3.7,0,7.25-3.19,7.92-7.11h0a6.27,6.27,0,0,0-1.24-5.14,5.34,5.34,0,0,0-4.18-1.87h0c-3.71,0-7.27,3.2-7.93,7.12A6.22,6.22,0,0,0,36,73,5.38,5.38,0,0,0,40.22,74.88Zm8.14-7.08h0Z"/><path class="cls-5" d="M43,71.3c0-1-.18-7.47-.18-7.47a2.54,2.54,0,0,0-1.26-2.28l-.6-.47.24,10.26.94.74c.45.36.86.18.86-.78"/><path class="cls-4" d="M41,60.88a.18.18,0,0,1,.12,0l.52.4.08.06A2.73,2.73,0,0,1,43,63.83c0,.06.18,6.52.18,7.47h0c0,.59-.15,1-.43,1.1a.7.7,0,0,1-.76-.17l-.93-.74a.2.2,0,0,1-.08-.15l-.24-10.25a.21.21,0,0,1,.11-.19ZM42.79,71.3c0-1-.18-7.4-.18-7.47a2.34,2.34,0,0,0-1.17-2.12l-.09-.07-.19-.14.23,9.74.86.68c.14.11.27.16.34.12s.2-.27.2-.74Z"/><path class="cls-3" d="M43,71.3c0,.63-.17.93-.42,1,.18.16,1.46-.34,1.6-.39s.35-.37.35-.93c0-1-.15-7.88-.15-7.88a2.55,2.55,0,0,0-1.26-2.28c-1.1-.83-3.43-2.67-3.43-2.67l-1.84.49s3.2,2.57,3.71,3a2.54,2.54,0,0,1,1.26,2.28Z"/><path class="cls-4" d="M39.68,57.9a.2.2,0,0,1,.13,0s2.33,1.85,3.42,2.67a2.72,2.72,0,0,1,1.33,2.44c0,.06.15,6.92.16,7.88,0,.78-.26,1-.48,1.12l-.08,0c-1.35.5-1.58.44-1.72.33a.21.21,0,0,1-.06-.21.19.19,0,0,1,.17-.14c.14,0,.24-.32.24-.76l-.18-7.47a2.34,2.34,0,0,0-1.17-2.12c-.52-.38-3.59-2.86-3.72-3a.2.2,0,0,1-.07-.2.19.19,0,0,1,.14-.15l1.84-.49ZM43.08,72c.2-.06.5-.15,1-.32l.07,0c.1,0,.22-.26.22-.75,0-1-.15-7.81-.15-7.88A2.32,2.32,0,0,0,43,60.93c-1-.74-2.94-2.29-3.35-2.62l-1.37.37c.81.66,3,2.4,3.4,2.71A2.73,2.73,0,0,1,43,63.83l.18,7.46h0A1.9,1.9,0,0,1,43.08,72Z"/><path class="cls-5" d="M59.06,53.29l0,1.22a8.29,8.29,0,0,1,1-.41l-1-.81"/><path class="cls-4" d="M59.06,52.73a.53.53,0,0,1,.35.13l1,.81a.55.55,0,0,1,.2.52.56.56,0,0,1-.36.44,7.27,7.27,0,0,0-.91.38.55.55,0,0,1-.54,0,.56.56,0,0,1-.28-.46l0-1.22a.55.55,0,0,1,.31-.52A.54.54,0,0,1,59.06,52.73Z"/><path class="cls-3" d="M68,61c-.69,4-4.32,7.26-8.12,7.27S53.55,65,54.23,61s4.32-7.26,8.13-7.27S68.69,56.93,68,61"/><path class="cls-4" d="M62.39,53.51a5.74,5.74,0,0,1,4.48,2A6.66,6.66,0,0,1,68.2,61h0c-.7,4.09-4.43,7.43-8.31,7.44h0a5.79,5.79,0,0,1-4.49-2A6.65,6.65,0,0,1,54,61c.7-4.09,4.43-7.43,8.31-7.44Zm5.42,7.4a6.26,6.26,0,0,0-1.24-5.14,5.33,5.33,0,0,0-4.18-1.86h0c-3.7,0-7.26,3.19-7.93,7.11a6.28,6.28,0,0,0,1.24,5.14A5.39,5.39,0,0,0,59.86,68h0c3.7,0,7.25-3.2,7.92-7.11Z"/><path class="cls-5" d="M69.57,62.5c-.68,4-4.32,7.27-8.12,7.28s-6.33-3.23-5.65-7.24,4.32-7.27,8.12-7.28,6.33,3.23,5.65,7.24"/><path class="cls-4" d="M63.93,55.06a5.79,5.79,0,0,1,4.51,2,6.66,6.66,0,0,1,1.33,5.45h0c-.7,4.1-4.43,7.44-8.32,7.45h0a5.79,5.79,0,0,1-4.51-2,6.67,6.67,0,0,1-1.33-5.45c.7-4.1,4.43-7.44,8.32-7.45Zm5.45,7.4a6.21,6.21,0,0,0-1.24-5.13,5.41,5.41,0,0,0-4.21-1.87h0c-3.7,0-7.26,3.2-7.93,7.11a6.2,6.2,0,0,0,1.24,5.13,5.41,5.41,0,0,0,4.21,1.88h0c3.7,0,7.26-3.2,7.93-7.12Z"/><path class="cls-5" d="M64.21,66c0-.95-.19-7.46-.19-7.46a2.56,2.56,0,0,0-1.25-2.29l-.61-.46L62.41,66l.93.74c.46.36.87.18.87-.79"/><path class="cls-4" d="M62.16,55.59a.19.19,0,0,1,.12,0l.2.15.4.3a2.75,2.75,0,0,1,1.34,2.45c0,.06.18,6.51.18,7.46h0c0,.6-.14,1-.43,1.11a.69.69,0,0,1-.75-.16l-.94-.75a.2.2,0,0,1-.07-.15L62,55.79a.19.19,0,0,1,.11-.18A.15.15,0,0,1,62.16,55.59ZM64,66c0-.94-.18-7.39-.18-7.45a2.4,2.4,0,0,0-1.18-2.14l-.28-.21.23,9.75.86.69c.14.1.26.15.34.11S64,66.47,64,66Z"/><path class="cls-3" d="M64.21,66c0,.64-.18.94-.43,1,.19.15,1.46-.34,1.61-.4s.34-.37.34-.92c0-1-.15-7.88-.15-7.88a2.55,2.55,0,0,0-1.26-2.29c-1.1-.82-3.42-2.66-3.42-2.66l-1.85.49s3.21,2.57,3.72,3A2.56,2.56,0,0,1,64,58.53Z"/><path class="cls-4" d="M60.9,52.6a.19.19,0,0,1,.12,0s2.33,1.85,3.42,2.66a2.77,2.77,0,0,1,1.34,2.44c0,.07.15,6.93.15,7.88,0,.79-.26,1-.48,1.12s-1.5.59-1.79.36a.19.19,0,0,1-.07-.21.19.19,0,0,1,.17-.14c.13,0,.25-.25.25-.76l-.18-7.45a2.4,2.4,0,0,0-1.18-2.14c-.51-.38-3.59-2.85-3.72-2.95a.2.2,0,0,1-.07-.2A.19.19,0,0,1,59,53.1l1.85-.5Zm3.4,14.12c.32-.1.76-.25,1-.35.09,0,.22-.22.22-.74,0-1-.15-7.81-.15-7.88a2.34,2.34,0,0,0-1.18-2.13c-1-.73-2.93-2.28-3.35-2.61l-1.37.37c.81.65,3,2.4,3.41,2.7a2.76,2.76,0,0,1,1.33,2.45L64.4,66h0A2.24,2.24,0,0,1,64.3,66.72Z"/><path class="cls-5" d="M28.07,61.78l.87,10.37c.51.77.87,1.63.81-.56l-.38-9.92c0-.81.4-.1.71.77s1.59,3,1.32-1.64C31.13,58,30.52,57.86,30,58s-1.12-.19-1.84-2a5,5,0,0,0-1-1.73c.12,1.17.86,7.47.86,7.47"/><path class="cls-4" d="M27.21,54.11a.2.2,0,0,1,.14.06,5,5,0,0,1,1,1.81c.56,1.37,1.1,2,1.6,1.84a.84.84,0,0,1,.72.08c.47.32.76,1.23.92,2.88.15,2.59-.18,3-.52,3.07H31c-.6,0-1.09-1.34-1.1-1.35a6,6,0,0,0-.32-.77L30,71.58c0,1.27-.07,1.52-.29,1.59s-.44-.21-.71-.64l-.18-.27,0-.1L27.87,61.8c0-.18-.74-6.32-.86-7.47a.19.19,0,0,1,.11-.2Zm2.58,4.13c-.64,0-1.21-.69-1.8-2.13A5.5,5.5,0,0,0,27.48,55c.22,2,.78,6.71.79,6.76h0l.86,10.32.15.24.24.36a5.61,5.61,0,0,0,0-1.09l-.38-9.91c0-.16,0-.51.25-.56s.37-.07.85,1.25c.21.6.59,1.1.72,1.1h0s.35-.14.2-2.66c-.17-1.84-.5-2.42-.74-2.58a.41.41,0,0,0-.38,0A1,1,0,0,1,29.79,58.24Z"/><path class="cls-3" d="M29.32,54.08l-1.53-1.71-2.32.41,1.74,1.53A4.26,4.26,0,0,1,28,55.57c.29.73.92,3,2.34,2.41.6,0,2.16-.23,2.16-.23s-1.18.37-1.93-1.31a6.79,6.79,0,0,0-1.25-2.36"/><path class="cls-4" d="M27.86,52.16l1.61,1.78a7.34,7.34,0,0,1,1.29,2.44c.47,1.06,1.12,1.21,1.46,1.21h0l.24,0,.09.38a1.45,1.45,0,0,1-.25,0c-.44.06-1.45.19-1.93.2a1.25,1.25,0,0,1-1,0c-.81-.36-1.24-1.54-1.5-2.25,0-.1-.07-.19-.09-.26a4.46,4.46,0,0,0-.76-1.2l-2-1.78Zm3.46,5.54a2.69,2.69,0,0,1-.93-1.18,6.79,6.79,0,0,0-1.21-2.3h0l-1.46-1.62-1.81.32,1.43,1.25a4.58,4.58,0,0,1,.85,1.34c0,.07.06.16.09.27.23.6.64,1.73,1.29,2a.89.89,0,0,0,.7,0l.07,0A8.45,8.45,0,0,0,31.32,57.7Z"/><path class="cls-4" d="M27.79,52.17a.21.21,0,0,1,.15.07l1.53,1.7a7.34,7.34,0,0,1,1.29,2.44c.47,1.06,1.12,1.21,1.46,1.21h0l.24,0a.2.2,0,0,1,.22.15.19.19,0,0,1-.13.23,1.45,1.45,0,0,1-.25,0c-.44.06-1.45.19-1.93.2a1.25,1.25,0,0,1-1,0c-.81-.36-1.24-1.54-1.5-2.25,0-.1-.07-.19-.09-.26a4.46,4.46,0,0,0-.76-1.2l-1.72-1.51a.22.22,0,0,1-.07-.2.2.2,0,0,1,.16-.14l2.33-.41Zm3.53,5.53a2.69,2.69,0,0,1-.93-1.18,6.79,6.79,0,0,0-1.21-2.3h0l-1.46-1.62-1.81.32,1.43,1.25a4.58,4.58,0,0,1,.85,1.34c0,.07.06.16.09.27.23.6.64,1.73,1.29,2a.89.89,0,0,0,.7,0l.07,0A8.45,8.45,0,0,0,31.32,57.7Z"/><path class="cls-6" d="M114.67,55.78c1.37,5.32,0,12.12,13.16,12.08s15,8,15,8c1.15,4-5.41,6.46-11.29,6.48s-17.56-2.56-21.11-19.29Z"/><path class="cls-7" d="M114.67,55.59a.21.21,0,0,1,.19.15c.22.85.37,1.76.52,2.64.78,4.56,1.58,9.28,12.34,9.28h.21c6.79,0,10.51,2.2,12.44,4A9.1,9.1,0,0,1,143,75.81a3.25,3.25,0,0,1-.58,3c-1.92,2.56-7,3.74-10.91,3.76h-.06c-5.19,0-17.52-1.92-21.25-19.45a.21.21,0,0,1,.16-.24.2.2,0,0,1,.23.15c3.67,17.25,15.77,19.14,20.86,19.14h.06c4.58,0,9-1.53,10.59-3.59a2.89,2.89,0,0,0,.51-2.64c0-.09-2-7.85-14.67-7.85h-.21c-11.1,0-11.93-4.89-12.73-9.62-.15-.87-.3-1.77-.52-2.61a.21.21,0,0,1,.14-.24Z"/><path class="cls-6" d="M89.1,47c-6.7.74-24.4,10.45-5.7,19.95,2.49,1.59-13.31-4.4-15,4.19s37.93,17,37.82,4.42c-.08-8.75-10.28-5.18-.05-18Z"/><path class="cls-7" d="M89.1,46.82a.2.2,0,0,1,.2.18.21.21,0,0,1-.18.22C84.81,47.7,76.3,51.77,75.36,57c-.63,3.45,2.11,6.76,8.13,9.82.2.12.44.28.36.49s-.38.2-1.74,0c-3.69-.66-12.32-2.19-13.55,4-.28,1.36.54,2.77,2.4,4.2,6.64,5.07,24.56,8.48,31.86,4.84A5,5,0,0,0,106,75.58a8,8,0,0,0-2.72-6c-2.1-2.21-3.76-4,2.72-12.06a.19.19,0,0,1,.28,0,.19.19,0,0,1,0,.27c-6.27,7.84-4.79,9.4-2.74,11.55a8.27,8.27,0,0,1,2.83,6.31c0,2.2-1.12,3.89-3.39,5-7.4,3.7-25.55.26-32.27-4.88-2-1.52-2.86-3.07-2.55-4.59,1.31-6.51,10.54-4.88,14-4.26L83,67c-6-3.1-8.71-6.5-8-10.09,1-5.39,9.69-9.6,14.11-10.09Z"/><path class="cls-6" d="M93.58,4.21c-4.72-2.52-8.08-5-7.69,4.92Z"/><path class="cls-7" d="M88.27,1.77c1.23,0,2.8.86,4.56,1.81l.85.46a.2.2,0,0,1,.08.26.2.2,0,0,1-.27.09l-.85-.46c-2.21-1.2-4.12-2.23-5.23-1.53s-1.47,2.84-1.32,6.72a.19.19,0,0,1-.19.2h0a.2.2,0,0,1-.2-.19c-.16-4.14.3-6.32,1.5-7.07A2,2,0,0,1,88.27,1.77Z"/><path class="cls-8" d="M95.38,32.22c-9.87,3.83-21.85-3.29-25.25-19.33-.37-1.63-.92-2.9-1.91-2.8-2.09.46.38,8.24-3.33,9.7-6.52,2.47-4.12,17.52,5.3,12.41,1.74,5.89,12.19,16,21.07,16.53Z"/><path class="cls-7" d="M68.31,9.89c1.2,0,1.72,1.67,2,2.95,1.78,8.4,6.17,15,12.06,18.21a15.24,15.24,0,0,0,12.93,1,.19.19,0,0,1,.25.11.2.2,0,0,1-.11.26,15.59,15.59,0,0,1-13.26-1c-6-3.24-10.45-10-12.26-18.47-.42-1.87-1-2.72-1.69-2.64s-.78,1.71-.84,3.36C67.31,16.08,67.2,19.1,65,20c-1.88.71-3.18,2.65-3.48,5.2-.34,2.93.73,5.86,2.6,7.13,1.6,1.08,3.68,1,6-.28l.21-.12.07.23C72.1,38,82.57,48,91.27,48.53a.2.2,0,0,1,.19.21.19.19,0,0,1-.21.19c-8.9-.52-19.2-10.36-21.18-16.44-3,1.55-5,.94-6.21.14-2-1.37-3.14-4.38-2.77-7.49.32-2.7,1.71-4.77,3.73-5.53s2.1-3.54,2.18-6c.07-1.89.13-3.52,1.17-3.74Z"/><path class="cls-8" d="M99.12,70.1C93.69,70.4,79,63,81.57,49.76S96.11,32.94,92.84,30.13,84,28.48,80.67,21.47c-4.09-4.88-6.82-7.5,6.76-14.16,4.7-4.55,9.31-7.1,13-7.11s9.54,7.23,12,13c.64,1.08,0,3.18-2.15,8.89s-3,6.82-.42,10.16,14.1,18.54,1.55,31.9A21.18,21.18,0,0,1,99.12,70.1"/><path class="cls-7" d="M100.46,0c1.77,0,4.12,1.56,6.62,4.4a34.38,34.38,0,0,1,5.56,8.75c.67,1.12.09,3.14-2.14,9-.2.53-.39,1-.57,1.48-1.72,4.48-2.13,5.55.12,8.49,9.17,12,9.71,23.45,1.53,32.15a21.49,21.49,0,0,1-12.45,6h0c-3.11.17-9.69-2.25-14-7.24a15.26,15.26,0,0,1-3.72-13.34c1.5-7.65,6.07-12.09,9.1-15,1.6-1.55,2.76-2.67,2.73-3.55a1.21,1.21,0,0,0-.49-.87,12.27,12.27,0,0,0-4-2c-2.83-1-6-2.12-8.22-6.75l-.31-.37c-1.91-2.27-3.41-4.06-3-6.11.49-2.34,3.51-4.72,10.1-8C92.07,2.55,96.74,0,100.46,0ZM99.11,69.9A21,21,0,0,0,111.29,64c8-8.55,7.48-19.78-1.56-31.64-2.38-3.12-1.91-4.34-.17-8.88.18-.45.37-.94.56-1.47,2.15-5.66,2.76-7.71,2.17-8.72a33.85,33.85,0,0,0-5.51-8.65C104.36,1.91,102.11.4,100.46.4h0c-3.62,0-8.2,2.51-12.9,7.05l0,0c-6.39,3.13-9.45,5.51-9.91,7.69C77.2,17,78.66,18.77,80.49,21l.36.43c2.11,4.5,5.24,5.6,8,6.56A12.54,12.54,0,0,1,93,30a1.57,1.57,0,0,1,.64,1.16c0,1-1.18,2.22-2.85,3.84-3,2.9-7.52,7.28-9,14.82a14.93,14.93,0,0,0,3.63,13c4.26,4.89,10.7,7.29,13.72,7.1Z"/><path class="cls-9" d="M91.61,65.23c8.15-17.38.87-26.52-3-26.13a8.13,8.13,0,0,0-2.62.75,23.8,23.8,0,0,0-4.45,9.91C80.15,57,83.9,62.48,88.48,65.93c1.54.27,2.74,0,3.13-.7"/><path class="cls-7" d="M88.89,38.89c1.36,0,2.92,1,4.14,2.75,1.39,2,5.42,9.47-1.24,23.67h0c-.42.81-1.64,1.1-3.34.8l-.09,0c-3.32-2.49-8.64-7.94-7-16.36a24,24,0,0,1,4.49-10l.08-.06a7.94,7.94,0,0,1,2.68-.76Zm2.54,26.25c6.57-14,2.64-21.35,1.28-23.27-1.22-1.71-2.77-2.7-4-2.57a7.46,7.46,0,0,0-2.51.71,23.6,23.6,0,0,0-4.39,9.79c-1.6,8.18,3.56,13.49,6.81,15.94C90,66,91.1,65.77,91.43,65.14Z"/><path class="cls-8" d="M96.33,51.55C90,53.77,74.85,67.16,95.19,72.28c2.79,1-14-1.36-13.73,7.41s40.75,8.12,37.85-4.09c-2-8.51-11.17-2.76-4-17.53Z"/><path class="cls-7" d="M96.32,51.35a.19.19,0,0,1,.19.14.2.2,0,0,1-.12.25C92.29,53.16,84.9,59,85.13,64.32c.16,3.51,3.56,6.12,10.11,7.77.21.07.49.17.46.4s-.33.27-1.69.34c-3.74.17-12.52.58-12.36,6.86,0,1.38,1.14,2.58,3.29,3.56,7.59,3.46,25.82,2.82,32.13-2.36,1.83-1.51,2.52-3.27,2.05-5.25a7.93,7.93,0,0,0-4-5.29c-2.54-1.68-4.55-3,0-12.37a.21.21,0,0,1,.26-.09.2.2,0,0,1,.09.27c-4.36,9-2.58,10.22-.1,11.86a8.25,8.25,0,0,1,4.15,5.53c.51,2.14-.23,4-2.18,5.64-6.4,5.26-24.86,5.93-32.55,2.42-2.29-1-3.47-2.37-3.51-3.91C81.09,73,90.46,72.6,94,72.43l.82,0c-6.52-1.7-9.91-4.41-10.07-8-.24-5.48,7.32-11.51,11.52-13Z"/><path class="cls-8" d="M105.64,6.44c6.25-1.56,8.52-2.74,10.25-.48s-3.06,8.35-3.6,9.53Z"/><path class="cls-7" d="M113.35,4.5A3.1,3.1,0,0,1,116,5.84c1.46,1.89-1.3,6.15-2.78,8.44a12.21,12.21,0,0,0-.79,1.29.21.21,0,0,1-.27.1.2.2,0,0,1-.1-.26c.13-.26.42-.72.82-1.34,1.43-2.21,4.09-6.32,2.81-8s-3-1.31-7.11-.21c-.87.23-1.84.49-2.93.76a.2.2,0,1,1-.09-.38l2.92-.77A21.11,21.11,0,0,1,113.35,4.5Z"/><path class="cls-8" d="M111.49,44.85C108.52,50.42,104,52,99.35,53s-6,4.19-2.73,5,3.61,1.71,2.28,4.54S98.31,72.67,105,69,121.9,56.33,115.1,41Z"/><path class="cls-7" d="M115.1,40.79a.19.19,0,0,1,.18.11c7.56,17.07-5.88,26-10.18,28.32-3,1.64-4.69,1-5.56.18-1.73-1.63-1.64-5.1-.81-6.86.67-1.44.84-2.25.57-2.82s-1.06-1-2.73-1.45c-1.24-.33-1.94-1-1.92-1.9,0-1.46,1.94-2.91,4.66-3.52,4.22-.94,9-2.42,12-8.1a.2.2,0,0,1,.35.19c-3.1,5.82-8,7.34-12.28,8.3-2.83.63-4.33,2.06-4.35,3.13,0,.7.57,1.24,1.63,1.51,1.82.49,2.66,1,3,1.68s0,1.83-.58,3.14c-.75,1.62-.85,4.93.73,6.41,1.11,1,2.88,1,5.1-.24,4.23-2.29,17.43-11.05,10-27.8a.2.2,0,0,1,.1-.27Z"/><path class="cls-10" d="M81,22.09c1.47,3.28,5.58,7.05,7.87,5.21,1.29-.88-1.78-3.51-1.78-3.51Z"/><path class="cls-7" d="M81,21.9a.19.19,0,0,1,.18.11c1,2.24,3.44,5,5.62,5.49a2.16,2.16,0,0,0,1.94-.36.48.48,0,0,0,.24-.4c0-.83-1.44-2.3-2-2.79a.19.19,0,0,1,0-.28.19.19,0,0,1,.28,0c.22.2,2.23,1.95,2.16,3.12a.86.86,0,0,1-.4.7,2.51,2.51,0,0,1-2.27.42c-2.3-.55-4.84-3.39-5.89-5.7a.21.21,0,0,1,.1-.27Z"/><path class="cls-8" d="M80.67,21.47c.58,1.69,7.6,6.22,14,1.44Z"/><path class="cls-7" d="M80.67,21.27a.19.19,0,0,1,.18.14c.26.72,2,2.19,4.48,2.95a10,10,0,0,0,9.22-1.61.2.2,0,0,1,.28,0,.22.22,0,0,1,0,.28,10.55,10.55,0,0,1-9.58,1.67c-2.5-.77-4.4-2.26-4.73-3.2a.19.19,0,0,1,.12-.25Z"/><path class="cls-7" d="M94.58,22.77a.2.2,0,0,1,.2.2,3,3,0,0,0,2.27,1.16.2.2,0,1,1,0,.4c-1.09,0-2.67-.92-2.67-1.56A.2.2,0,0,1,94.58,22.77Z"/><path class="cls-10" d="M98.49,11.55c.38-1.94,1.06-5.72-.88-6s-4.15,1.79-5.06,3.95a50,50,0,0,1,5.94,2"/><path class="cls-11" d="M97.72,5.61l-.11,0c-2-.25-4.15,1.79-5.06,3.95.7.17,1.56.42,2.4.71a6.16,6.16,0,0,0,2.77-4.63"/><path class="cls-7" d="M92.29,10.07c2.1,0,5.81.78,6.64,2.66a.2.2,0,0,1-.1.26.19.19,0,0,1-.26-.1c-.91-2.06-6.11-2.71-7.32-2.32a.2.2,0,0,1-.12-.38A4.27,4.27,0,0,1,92.29,10.07Z"/><path class="cls-8" d="M70.19,32.2c3.73-2.35,1.29-8.4-1.51-10Z"/><path class="cls-7" d="M68.68,22l.1,0a8.21,8.21,0,0,1,3.51,6.36,4.31,4.31,0,0,1-2,4A.19.19,0,0,1,70,32.3a.2.2,0,0,1,.06-.27,4,4,0,0,0,1.81-3.62,7.77,7.77,0,0,0-3.3-6,.19.19,0,0,1-.08-.27A.18.18,0,0,1,68.68,22Z"/><path class="cls-9" d="M114.22,6.86c1,1,.62,2.86-.77,4.26s-3.29,1.74-4.25.79S108.58,9,110,7.65s3.29-1.75,4.25-.79"/><path class="cls-7" d="M112.8,6.12a2.15,2.15,0,0,1,1.56.6h0a2.16,2.16,0,0,1,.6,1.57,4.39,4.39,0,0,1-1.37,3c-1.46,1.47-3.49,1.82-4.53.79a2.16,2.16,0,0,1-.6-1.57,4.34,4.34,0,0,1,1.37-3,4.37,4.37,0,0,1,3-1.39Zm-2.18,6.13A4,4,0,0,0,113.31,11a4,4,0,0,0,1.26-2.69A1.77,1.77,0,0,0,114.08,7h0a1.74,1.74,0,0,0-1.28-.48h0a4,4,0,0,0-2.69,1.27,4,4,0,0,0-1.26,2.69,1.77,1.77,0,0,0,.49,1.29A1.8,1.8,0,0,0,110.62,12.25Z"/><path class="cls-10" d="M97.09,6.39c.21.13.12.7-.23,1.27s-.8.91-1,.78-.12-.7.22-1.26.8-.92,1-.79"/><path class="cls-11" d="M79.1,13.22c-7.94,1.11.89,8.18,1.57,8.25s5.79-4,4.15-7.08c-.91-1.54-3.91-1.41-5.72-1.17"/><path class="cls-7" d="M81.15,12.88c1.54,0,3.18.29,3.83,1.41s.41,2.62-.64,4.19-3.08,3.19-3.66,3.19h0c-.54-.06-5-3.54-5-6.09,0-1.37,1.15-2.23,3.47-2.55h0A15.56,15.56,0,0,1,81.15,12.88Zm-2.05.34Zm1.6,8.06A9,9,0,0,0,84.18,18a3.44,3.44,0,0,0,.46-3.51c-.89-1.51-4.15-1.24-5.51-1.06h0c-2,.28-3.08,1-3.12,2.06-.09,2.34,4.31,5.71,4.68,5.8Z"/><path class="cls-10" d="M80.9,14.89c0,.53-.8,1-1.78,1s-1.77-.41-1.77-.95.78-1,1.76-1,1.78.43,1.79,1"/><path class="cls-5" d="M42.84,75.93C38.62,71,31,71.55,28.29,77.12c1.53.57.2,3.63.2,3.63,1.73-1.15,4.79.56,4.79.56,1.34-1.72,6.11-6.14,9.56-5.38"/><path class="cls-4" d="M35.7,72.34A9.6,9.6,0,0,1,43,75.8l-.19.32c-3.37-.73-8.11,3.7-9.36,5.31l-.11.14-.14-.08s-3-1.64-4.59-.57l-.29-.25s.82-1.91.4-2.89a.83.83,0,0,0-.49-.48l-.2-.07.09-.2a8.16,8.16,0,0,1,6.43-4.61A9.17,9.17,0,0,1,35.7,72.34Zm6.63,3.32a9.08,9.08,0,0,0-7.74-2.85,7.79,7.79,0,0,0-6,4.22,1.22,1.22,0,0,1,.53.59,4.4,4.4,0,0,1-.22,2.72c1.59-.6,3.78.42,4.37.72,1.35-1.67,5.4-5.42,8.78-5.42Z"/><path class="cls-5" d="M46.89,77.05c-.19,1.14-2.1,3.83-6.31,4.8,2.69.76,2.31,2.68,2.31,2.68,1.15-.39,5-.6,5.74,0s4-1.36,3-7.1a5.94,5.94,0,0,0-4.79-.36"/><path class="cls-4" d="M48.87,76.51a6,6,0,0,1,2.9.73l.09,0v.1c.67,4-.65,6.3-2,7.12a1.3,1.3,0,0,1-1.37.17c-.68-.51-4.41-.34-5.57,0l-.32.11.06-.33c0-.07.31-1.75-2.16-2.45v-.38c4-.91,6-3.47,6.15-4.64l0-.11.1,0A5.85,5.85,0,0,1,48.87,76.51Zm2.63,1a5.84,5.84,0,0,0-4.44-.34c-.27,1.13-2,3.6-5.79,4.68a2.61,2.61,0,0,1,1.83,2.38c1.43-.34,4.86-.5,5.65.09.14.1.49.09.93-.19C50.9,83.41,52.1,81.24,51.5,77.54Z"/><path class="cls-5" d="M55.3,70.47c4.22.17,5.57,7.64,1.76,9.76-1-1.15-3.07-.18-3.07-.18,0-1.14-3.25-.38-3.25-.38,1.52-1.15,3.23-6.9-.61-8.61a49,49,0,0,1,5.17-.59"/><path class="cls-4" d="M55.3,70.27h0c1.88.07,3.45,1.62,4,3.93.5,2.13,0,5-2.16,6.2l-.14.08-.1-.12c-.86-1-2.82-.14-2.84-.13l-.28.13v-.31a.26.26,0,0,0-.11-.23c-.46-.36-2-.16-2.9.05l-.17-.35a6.57,6.57,0,0,0,1.62-5.14,3.71,3.71,0,0,0-2.18-3.14l0-.38a51,51,0,0,1,5.2-.59ZM57.09,80c1.91-1.16,2.29-3.74,1.83-5.69-.4-1.7-1.56-3.54-3.61-3.63-.19,0-2.74.19-4.58.49a4.1,4.1,0,0,1,1.89,3.18,7.57,7.57,0,0,1-1.29,5c.78-.13,2.06-.27,2.59.16a.56.56,0,0,1,.21.27C54.71,79.56,56.21,79.12,57.09,80Z"/><path class="cls-5" d="M66.81,75.26a7,7,0,0,0,5.94,4c1.92,0-4.2,2.12-2.86,3.28s-2.67,1.72-2.67,1.72c.57,1.35-6.13.59-5-10.33,1.92,3.06,2.11.19,2.11.19,1-.39,2.49,1.14,2.49,1.14"/><path class="cls-4" d="M62.38,73.83c.82,1.32,1.22,1.32,1.32,1.31s.39-.65.42-1V74l.11,0c1-.43,2.54,1,2.71,1.18l0,0a6.77,6.77,0,0,0,5.76,3.9h0c.17,0,.48,0,.55.24s-.26.49-1.23,1.06-2.15,1.26-2.19,1.77c0,0,0,.14.12.24a.73.73,0,0,1,.32.77c-.22.77-2.15,1.15-2.89,1.28a.44.44,0,0,1-.15.33c-.31.3-1,.26-1.79-.12-1-.5-4.32-2.77-3.5-10.73Zm4.27,1.55c-.4-.39-1.47-1.28-2.15-1.11,0,.33-.19,1.12-.71,1.25s-.87-.22-1.44-1c-.59,7.25,2.39,9.31,3.33,9.78.69.34,1.21.31,1.35.18s0,0,0-.13l-.1-.24.26,0c1.07-.16,2.64-.58,2.77-1,0-.1,0-.22-.19-.36a.65.65,0,0,1-.27-.58c.06-.65,1.07-1.3,2.38-2.07a10.29,10.29,0,0,0,.92-.57s0,0,0,0h0A7.13,7.13,0,0,1,66.65,75.38Z"/><path class="cls-7" d="M97.28,5.36a2.17,2.17,0,0,1,.36,0,1.43,1.43,0,0,1,1,.6c.81,1.11.48,3.46.06,5.61l0,.24-.22-.09a49.91,49.91,0,0,0-5.91-2l-.23-.05.09-.22C93.22,7.41,95.29,5.36,97.28,5.36Zm1.07,5.92c.26-1.35.72-4,0-5.07a1,1,0,0,0-.73-.44c-1.84-.24-3.85,1.66-4.75,3.63A49.55,49.55,0,0,1,98.35,11.28Z"/></g></g></svg>